<svg width="512" height="512" viewBox="0 0 512 512" fill="none" xmlns="http://www.w3.org/2000/svg">
<path d="M227.72 124.28L124.28 227.72" stroke="white" stroke-width="24" stroke-linecap="round" stroke-linejoin="round"/>
<path d="M387.72 284.28L284.28 387.72" stroke="white" stroke-width="24" stroke-linecap="round" stroke-linejoin="round"/>
<path d="M136 256H376" stroke="white" stroke-width="24" stroke-linecap="round" stroke-linejoin="round"/>
<path d="M256 456C278.091 456 296 438.091 296 416C296 393.909 278.091 376 256 376C233.909 376 216 393.909 216 416C216 438.091 233.909 456 256 456Z" stroke="white" stroke-width="24" stroke-linecap="round" stroke-linejoin="round"/>
<path d="M256 136C278.091 136 296 118.091 296 96C296 73.9086 278.091 56 256 56C233.909 56 216 73.9086 216 96C216 118.091 233.909 136 256 136Z" stroke="white" stroke-width="24" stroke-linecap="round" stroke-linejoin="round"/>
<path d="M416 296C438.091 296 456 278.091 456 256C456 233.909 438.091 216 416 216C393.909 216 376 233.909 376 256C376 278.091 393.909 296 416 296Z" stroke="white" stroke-width="24" stroke-linecap="round" stroke-linejoin="round"/>
<path d="M96 296C118.091 296 136 278.091 136 256C136 233.909 118.091 216 96 216C73.9086 216 56 233.909 56 256C56 278.091 73.9086 296 96 296Z" stroke="white" stroke-width="24" stroke-linecap="round" stroke-linejoin="round"/>
</svg>
